<?xml version="1.0" encoding="UTF-8" standalone="no"?>
<svg
   xmlns:dc="http://purl.org/dc/elements/1.1/"
   xmlns:cc="http://creativecommons.org/ns#"
   xmlns:rdf="http://www.w3.org/1999/02/22-rdf-syntax-ns#"
   xmlns:svg="http://www.w3.org/2000/svg"
   xmlns="http://www.w3.org/2000/svg"
   xmlns:xlink="http://www.w3.org/1999/xlink"
   xmlns:sodipodi="http://sodipodi.sourceforge.net/DTD/sodipodi-0.dtd"
   xmlns:inkscape="http://www.inkscape.org/namespaces/inkscape"
   height="201.93201"
   width="201.93201"
   inkscape:version="1.0rc1 (09960d6, 2020-04-09)"
   sodipodi:docname="gear-145315.svg"
   id="svg938"
   version="1.1"
   viewBox="0 0 201.93201 201.93201">
  <metadata
     id="metadata944">
    <rdf:RDF>
      <cc:Work
         rdf:about="">
        <dc:format>image/svg+xml</dc:format>
        <dc:type
           rdf:resource="http://purl.org/dc/dcmitype/StillImage" />
        <dc:title></dc:title>
      </cc:Work>
    </rdf:RDF>
  </metadata>
  <defs
     id="defs942" />
  <sodipodi:namedview
     fit-margin-bottom="0"
     fit-margin-right="0"
     fit-margin-left="0"
     fit-margin-top="0"
     inkscape:current-layer="svg938"
     inkscape:window-maximized="1"
     inkscape:window-y="0"
     inkscape:window-x="0"
     inkscape:cy="100.96677"
     inkscape:cx="100.90615"
     inkscape:zoom="7.5071107"
     showgrid="false"
     id="namedview940"
     inkscape:window-height="2083"
     inkscape:window-width="3840"
     inkscape:pageshadow="2"
     inkscape:pageopacity="0"
     guidetolerance="10"
     gridtolerance="10"
     objecttolerance="10"
     borderopacity="1"
     bordercolor="#666666"
     pagecolor="#212121" />
  <g
     style="fill:#004100;fill-opacity:0.66619021"
     transform="translate(-53.359,-818.159)"
     id="g934">
    <path
       style="fill:#004100;fill-opacity:0.66619021"
       d="m 240.98,928.29 c 9.0252,0 14.311,-2.7311 14.311,-2.7311 v -12.863 c 0,0 -5.2861,-2.7311 -14.311,-2.7311 h -61.808 v 18.325 h 61.808 z m -173.31,0 c -9.0252,0 -14.311,-2.7311 -14.311,-2.7311 v -12.863 c 0,0 5.2861,-2.7311 14.311,-2.7311 h 61.808 v 18.325 H 67.67 Z"
       fill-rule="evenodd"
       id="path908"
       inkscape:connector-curvature="0" />
    <path
       style="fill:#004100;fill-opacity:0.66619021"
       d="m 163.49,832.47 c 0,-9.0252 -2.7311,-14.311 -2.7311,-14.311 h -12.863 c 0,0 -2.7311,5.2861 -2.7311,14.311 v 61.808 h 18.325 V 832.47 Z m 0,173.31 c 0,9.0252 -2.7311,14.311 -2.7311,14.311 h -12.863 c 0,0 -2.7311,-5.2861 -2.7311,-14.311 v -61.808 h 18.325 v 61.808 z"
       fill-rule="evenodd"
       id="path910"
       inkscape:connector-curvature="0" />
    <path
       style="fill:#004100;fill-opacity:0.66619021"
       d="m 240.93,909.96 c 9.0252,0 14.311,2.7311 14.311,2.7311 v 12.863 c 0,0 -5.2861,2.7311 -14.311,2.7311 h -15.643 v -18.325 h 15.643 z m -173.19,0 c -9.0252,0 -14.311,2.7311 -14.311,2.7311 v 12.863 c 0,0 5.2861,2.7311 14.311,2.7311 h 15.643 v -18.325 H 67.74 Z"
       fill-rule="evenodd"
       id="path912"
       inkscape:connector-curvature="0" />
    <path
       style="fill:#004100;fill-opacity:0.66619021"
       d="m 241.92,919.12 c 0,48.348 -39.239,87.587 -87.587,87.587 -48.348,0 -87.587,-39.239 -87.587,-87.587 0,-48.348 39.239,-87.587 87.587,-87.587 48.348,0 87.587,39.239 87.587,87.587 z m -17.973,10e-6 c 0,38.427 -31.187,69.614 -69.614,69.614 -38.427,0 -69.614,-31.187 -69.614,-69.614 0,-38.427 31.187,-69.614 69.614,-69.614 38.427,0 69.614,31.187 69.614,69.614 z"
       fill-rule="evenodd"
       id="path914"
       inkscape:connector-curvature="0" />
    <path
       style="fill:#004100;fill-opacity:0.66619021"
       d="m 184.48,919.12 c 0,16.64 -13.505,30.145 -30.145,30.145 -16.64,0 -30.145,-13.505 -30.145,-30.145 0,-16.64 13.505,-30.145 30.145,-30.145 16.64,0 30.145,13.505 30.145,30.145 z m -16.915,10e-6 c 0,7.3026 -5.9268,13.229 -13.229,13.229 -7.3022,0 -13.229,-5.9268 -13.229,-13.229 0,-6.0938 4.1269,-11.229 9.7365,-12.763 v -5.7013 h 7.8713 v 5.9772 c 5.1531,1.8085 8.8512,6.7184 8.8512,12.487 z"
       fill-rule="evenodd"
       id="path916"
       inkscape:connector-curvature="0" />
    <path
       style="fill:#004100;fill-opacity:0.66619021"
       id="a"
       d="m 145.17,832.53 c 0,-9.0252 2.7311,-14.311 2.7311,-14.311 h 12.863 c 0,0 2.7311,5.2861 2.7311,14.311 v 15.643 h -18.325 V 832.53 Z"
       fill-rule="evenodd"
       inkscape:connector-curvature="0" />
    <use
       style="fill:#004100;fill-opacity:0.66619021"
       transform="matrix(0.70711,-0.70711,0.70711,0.70711,-604.72,378.33)"
       width="248.03151"
       height="248.03151"
       xlink:href="#a"
       id="use919"
       x="0"
       y="0" />
    <use
       style="fill:#004100;fill-opacity:0.66619021"
       id="j"
       transform="matrix(0.70711,0.70711,-0.70711,0.70711,695.12,160.08)"
       width="248.03151"
       height="248.03151"
       xlink:href="#a"
       x="0"
       y="0" />
    <use
       style="fill:#004100;fill-opacity:0.66619021"
       id="i"
       transform="rotate(90,154.355,919.145)"
       width="248.03151"
       height="248.03151"
       xlink:href="#j"
       x="0"
       y="0" />
    <use
       style="fill:#004100;fill-opacity:0.66619021"
       transform="rotate(90,154.355,919.145)"
       width="248.03151"
       height="248.03151"
       xlink:href="#i"
       id="use923"
       x="0"
       y="0" />
    <use
       style="fill:#004100;fill-opacity:0.66619021"
       id="h"
       transform="matrix(0.92388,-0.38268,0.38268,0.92388,-339.99,129.02)"
       width="248.03151"
       height="248.03151"
       xlink:href="#a"
       x="0"
       y="0" />
    <use
       style="fill:#004100;fill-opacity:0.66619021"
       id="g"
       transform="matrix(0.70711,-0.70711,0.70711,0.70711,-604.72,378.33)"
       width="248.03151"
       height="248.03151"
       xlink:href="#h"
       x="0"
       y="0" />
    <use
       style="fill:#004100;fill-opacity:0.66619021"
       id="f"
       transform="matrix(0.70711,-0.70711,0.70711,0.70711,-604.72,378.33)"
       width="248.03151"
       height="248.03151"
       xlink:href="#g"
       x="0"
       y="0" />
    <use
       style="fill:#004100;fill-opacity:0.66619021"
       id="e"
       transform="matrix(0.70711,-0.70711,0.70711,0.70711,-604.72,378.33)"
       width="248.03151"
       height="248.03151"
       xlink:href="#f"
       x="0"
       y="0" />
    <use
       style="fill:#004100;fill-opacity:0.66619021"
       id="d"
       transform="matrix(0.70711,-0.70711,0.70711,0.70711,-604.72,378.33)"
       width="248.03151"
       height="248.03151"
       xlink:href="#e"
       x="0"
       y="0" />
    <use
       style="fill:#004100;fill-opacity:0.66619021"
       id="c"
       transform="matrix(0.70711,-0.70711,0.70711,0.70711,-604.72,378.33)"
       width="248.03151"
       height="248.03151"
       xlink:href="#d"
       x="0"
       y="0" />
    <use
       style="fill:#004100;fill-opacity:0.66619021"
       id="b"
       transform="matrix(0.70711,-0.70711,0.70711,0.70711,-604.72,378.33)"
       width="248.03151"
       height="248.03151"
       xlink:href="#c"
       x="0"
       y="0" />
    <use
       style="fill:#004100;fill-opacity:0.66619021"
       transform="matrix(0.70711,-0.70711,0.70711,0.70711,-604.72,378.33)"
       width="248.03151"
       height="248.03151"
       xlink:href="#b"
       id="use932"
       x="0"
       y="0" />
  </g>
</svg>
